<?xml version="1.0" encoding="UTF-8"?>
<!-- Generated by Pixelmator Pro 2.3.8 -->
<svg width="512" height="512" viewBox="0 0 512 512" xmlns="http://www.w3.org/2000/svg" xmlns:xlink="http://www.w3.org/1999/xlink">
    <style>
        #helmet .logo-color-switch {
          fill: #2d2a6d;
        }
        @media (prefers-color-scheme: dark) {
            #helmet .logo-color-switch {
              fill: #ffffff;
            }
        }
    </style>
    <g id="Gruppe">
        <g id="helmet">
            <path id="helmetTop" class='logo-color-switch' fill="#2d2a6d" stroke="none" d="M 331.100006 232.299988 L 314.200012 241.700012 L 314.200012 292.899994 L 275.799988 316 L 275.799988 340.700012 L 256 352.200012 L 236.200012 340.799988 L 236.200012 316.100006 L 197.800003 293 L 197.800003 241.799988 L 180.899994 232.399994 L 142.699997 210.299988 L 142.699997 214.100006 C 142.699997 219.899994 145.800003 225.200012 150.800003 228.100006 L 180.899994 245.399994 L 180.899994 258.5 L 154.800003 243.5 L 154.800003 246.5 C 154.800003 252.799988 158.199997 258.600006 163.600006 261.799988 L 180.899994 271.700012 L 180.899994 283.700012 L 169.600006 277.200012 L 169.600006 326 L 236.200012 365.100006 L 236.200012 353.700012 L 256 365.100006 L 275.799988 353.700012 L 275.799988 365.100006 L 342.399994 326 L 342.399994 277 L 331.100006 283.5 L 331.100006 271.5 L 348.399994 261.600006 C 353.899994 258.5 357.200012 252.600006 357.200012 246.299988 L 357.200012 243.299988 L 331.100006 258.299988 L 331.100006 245.200012 L 361.200012 227.899994 C 366.200012 225 369.299988 219.700012 369.299988 213.899994 L 369.299988 210.100006 L 331.100006 232.299988 Z"/>
            <path id="helmetBottom" class='logo-color-switch' fill="#2d2a6d" stroke="none" d="M 162.699997 208.700012 L 256 262.5 L 349.299988 208.700012 C 354 206 357 200.899994 357 195.5 L 357 191.200012 L 330.299988 206.700012 C 329.799988 202.299988 329 198 327.700012 193.899994 C 322.100006 176.200012 310.100006 160.799988 293.600006 151.299988 C 282.200012 144.700012 269.100006 141.399994 256 141.399994 C 242.899994 141.399994 229.799988 144.700012 218.399994 151.299988 C 201.899994 160.799988 189.899994 176.200012 184.300003 193.899994 C 183 198.100006 182.199997 202.399994 181.699997 206.700012 L 155 191.200012 L 155 195.5 C 155 200.899994 158 206 162.699997 208.700012 Z M 247.799988 163.700012 L 277.299988 163.700012 L 266.399994 194.299988 L 279 194.299988 L 234.799988 235.600006 L 245.700012 205 L 233.100006 205 L 247.799988 163.700012 Z"/>
        </g>
        <linearGradient id="linearGradient1" x1="256" y1="114.9241" x2="256" y2="403.2589" gradientUnits="userSpaceOnUse">
            <stop offset="1e-05" stop-color="#ec1c24" stop-opacity="1"/>
            <stop offset="1" stop-color="#f6921e" stop-opacity="1"/>
        </linearGradient>
        <path id="path2" fill="url(#linearGradient1)" stroke="none" d="M 431.899994 328.600006 C 429.700012 327.299988 427.399994 326.5 425.100006 325.899994 L 425.100006 186.100006 C 427.399994 185.600006 429.700012 184.700012 431.899994 183.399994 C 437.700012 180.100006 441.799988 174.600006 443.600006 168.200012 C 445.299988 161.700012 444.399994 155 441.100006 149.200012 C 436.5 141.200012 428 136.700012 419.399994 136.700012 C 415.200012 136.700012 410.799988 137.799988 406.899994 140.100006 C 404.700012 141.399994 402.799988 142.899994 401.100006 144.700012 L 280 74.600006 C 280.700012 72.299988 281.100006 69.899994 281.100006 67.299988 C 281.100006 53.5 269.899994 42.200012 256 42.200012 L 256 42.200012 C 242.200012 42.200012 230.899994 53.399994 230.899994 67.299988 C 230.899994 69.799988 231.299988 72.299988 232 74.600006 L 110.899994 144.5 C 109.300003 142.700012 107.300003 141.200012 105.100006 139.899994 C 101.199997 137.600006 96.899994 136.5 92.600006 136.5 C 83.900002 136.5 75.5 141 70.900002 149 C 67.599998 154.799988 66.699997 161.600006 68.400002 168 C 70.099998 174.5 74.300003 179.899994 80.099998 183.200012 C 82.300003 184.5 84.600006 185.299988 86.899994 185.899994 L 86.899994 325.700012 C 84.600006 326.200012 82.300003 327.100006 80.099998 328.399994 C 74.300003 331.700012 70.199997 337.200012 68.400002 343.600006 C 66.699997 350.100006 67.599998 356.799988 70.900002 362.600006 C 75.5 370.600006 84 375.100006 92.600006 375.100006 C 96.800003 375.100006 101.199997 374 105.100006 371.700012 C 107.300003 370.399994 109.199997 368.899994 110.899994 367.100006 L 232 437.399994 C 231.299988 439.700012 230.899994 442.100006 230.899994 444.700012 C 230.899994 458.5 242.100006 469.799988 256 469.799988 L 256 469.799988 C 269.799988 469.799988 281.100006 458.600006 281.100006 444.700012 C 281.100006 442.200012 280.700012 439.700012 280 437.399994 L 401.100006 367.5 C 402.700012 369.299988 404.700012 370.799988 406.899994 372.100006 C 410.799988 374.399994 415.100006 375.5 419.399994 375.5 C 428.100006 375.5 436.5 371 441.100006 363 C 444.399994 357.200012 445.299988 350.399994 443.600006 344 C 441.799988 337.399994 437.700012 332 431.899994 328.600006 Z M 406.100006 158.200012 C 407 154.700012 409.299988 151.700012 412.5 149.899994 C 415.700012 148.100006 419.299988 147.600006 422.899994 148.5 C 426.399994 149.399994 429.399994 151.700012 431.200012 154.899994 C 433 158.100006 433.5 161.700012 432.600006 165.299988 C 431.700012 168.799988 429.399994 171.799988 426.200012 173.600006 C 424.100006 174.799988 421.799988 175.399994 419.399994 175.399994 C 418.200012 175.399994 417 175.200012 415.799988 174.899994 C 412.299988 174 409.299988 171.700012 407.5 168.5 C 405.700012 165.399994 405.200012 161.700012 406.100006 158.200012 Z M 256 53.700012 L 256 53.700012 C 263.5 53.700012 269.700012 59.799988 269.700012 67.399994 C 269.700012 74.899994 263.600006 81.100006 256 81.100006 L 256 81.100006 C 248.5 81.100006 242.299988 75 242.299988 67.399994 C 242.299988 59.799988 248.5 53.700012 256 53.700012 Z M 85.800003 173.5 C 82.599998 171.700012 80.400002 168.700012 79.400002 165.200012 C 78.5 161.700012 78.900002 158 80.800003 154.799988 C 82.599998 151.600006 85.600006 149.399994 89.100006 148.399994 C 92.600006 147.5 96.300003 147.899994 99.5 149.799988 C 102.699997 151.600006 104.899994 154.600006 105.899994 158.100006 C 106.800003 161.600006 106.399994 165.299988 104.5 168.5 C 102.699997 171.700012 99.699997 173.899994 96.199997 174.899994 C 95 175.200012 93.800003 175.399994 92.600006 175.399994 C 90.300003 175.399994 87.899994 174.700012 85.800003 173.5 Z M 105.899994 353.799988 C 105 357.299988 102.699997 360.299988 99.5 362.100006 C 96.300003 363.899994 92.699997 364.399994 89.100006 363.5 C 85.600006 362.600006 82.599998 360.299988 80.800003 357.100006 C 79 353.899994 78.5 350.299988 79.400002 346.700012 C 80.300003 343.200012 82.599998 340.200012 85.800003 338.399994 C 87.899994 337.200012 90.199997 336.600006 92.600006 336.600006 C 93.800003 336.600006 95 336.799988 96.199997 337.100006 C 99.699997 338 102.699997 340.299988 104.5 343.5 C 106.300003 346.600006 106.800003 350.299988 105.899994 353.799988 Z M 256 458.299988 L 256 458.299988 C 248.5 458.299988 242.299988 452.200012 242.299988 444.600006 C 242.299988 437.100006 248.399994 430.899994 256 430.899994 L 256 430.899994 C 263.5 430.899994 269.700012 437 269.700012 444.600006 C 269.700012 452.200012 263.5 458.299988 256 458.299988 Z M 357 307.700012 L 357 320.899994 L 395.399994 343.100006 C 393.899994 347.899994 394 353 395.399994 357.600006 L 274.299988 427.5 C 271 424 266.600006 421.399994 261.700012 420.200012 L 261.700012 379.200012 L 250.299988 379.200012 L 250.299988 420.200012 C 245.399994 421.299988 241.100006 423.899994 237.700012 427.5 L 116.600006 357.600006 C 118 352.899994 118.100006 347.899994 116.600006 343.100006 L 155 320.899994 L 155 307.700012 L 110.899994 333.200012 C 107.5 329.5 103.100006 327.100006 98.300003 326 L 98.300003 186.100006 C 103 185 107.399994 182.5 110.899994 178.899994 L 142.699997 197.200012 L 142.699997 184 L 116.600006 169 C 118.100006 164.200012 118 159.100006 116.600006 154.5 L 237.700012 84.600006 C 241 88.100006 245.399994 90.700012 250.299988 91.899994 L 250.299988 132.899994 L 261.700012 132.899994 L 261.700012 91.899994 C 266.600006 90.799988 270.899994 88.200012 274.299988 84.600006 L 395.399994 154.5 C 394 159.200012 393.899994 164.200012 395.399994 169 L 369.299988 184 L 369.299988 197.100006 L 401.100006 178.799988 C 404.5 182.5 408.899994 184.899994 413.700012 186 L 413.700012 325.899994 C 409 327 404.600006 329.5 401.100006 333.100006 L 357 307.700012 Z M 431.200012 357.100006 C 429.399994 360.299988 426.399994 362.5 422.899994 363.5 C 419.399994 364.399994 415.700012 364 412.5 362.100006 C 409.299988 360.299988 407.100006 357.299988 406.100006 353.799988 C 405.200012 350.299988 405.600006 346.600006 407.5 343.399994 C 409.299988 340.200012 412.299988 338 415.799988 337 C 417 336.700012 418.200012 336.5 419.399994 336.5 C 421.799988 336.5 424.100006 337.100006 426.200012 338.299988 C 429.399994 340.100006 431.600006 343.100006 432.600006 346.600006 C 433.5 350.299988 433 354 431.200012 357.100006 Z"/>
    </g>
</svg>
